<?xml version="1.0" encoding="utf-8"?>
<!-- Generator: Adobe Illustrator 25.2.0, SVG Export Plug-In . SVG Version: 6.00 Build 0)  -->
<svg version="1.1" id="Layer_1" xmlns="http://www.w3.org/2000/svg" xmlns:xlink="http://www.w3.org/1999/xlink" x="0px" y="0px"
	 viewBox="0 0 534.7 165.1" style="enable-background:new 0 0 534.7 165.1;" xml:space="preserve">
<style type="text/css">
	.st0{fill:#FFFFFF;}
</style>
<path class="st0" d="M135.8,24.7v21.6H81.4c-1.2,7.4-2.5,14.7-3.9,22.2h44.8v57.3h22.8v21.6H10v-21.6h31.3c2.5-11,5.2-23.2,7.8-35.9
	H22.7V68.5h30.5c1.2-7.5,2.5-15,3.6-22.2H18.2V24.7L135.8,24.7 M65.8,125.8h33.9V89.9H73.3C70.8,102.7,68.2,115,65.8,125.8
	 M145.8,14.7H8.2v41.6h36.8c-0.1,0.7-0.2,1.4-0.4,2.1v0.1h-32v41.4h24.1c-1.1,5.3-2.3,10.6-3.5,15.9H0v41.6h155.2v-41.6h-22.8V58.5
	H89.4l0.4-2.2h56L145.8,14.7L145.8,14.7z M81.5,99.9h8.2v15.9H78.2C79.2,110.9,80.3,105.6,81.5,99.9z"/>
<path class="st0" d="M241.4,11.2l23.8,4.5c-1.5,2.4-3,4.8-4.7,7h34.2l3.8-0.9l15,8.5c-6.5,12.3-15.6,23-26.7,31.5
	c14.4,4.8,31.1,8.1,49,9.9c-4.5,4.8-10.2,13.8-12.9,19.5c-21.7-3-40.9-8.2-57.4-16c-17.7,9-38.2,14.9-59.8,18.8
	c-2-5.7-6.5-14.5-10.2-19.3c17.2-2.2,33.9-6.3,48.5-12.1c-4.2-3.1-8.2-6.4-12-10c-5.9,4.4-12.2,8.3-18.8,11.7
	c-3.3-5.1-10.3-12.9-15.3-16.4C219.9,38.2,233.9,24.7,241.4,11.2 M279.2,41.1h-31.8c5.2,4.4,10.9,8.3,16.9,11.4
	C269.6,49.2,274.6,45.4,279.2,41.1 M275.4,84.4v10.5h56.4v19h-39.6c12,8.5,28,15.8,43.9,19.8c-4.8,4.4-11.2,12.9-14.4,18.3
	c-17.2-6.1-32.9-15.6-46.3-27.9V154h-22.2v-29.3c-13.2,12.5-28.9,22.1-46,28.2c-4-6.4-8.7-12.4-14.1-17.7
	c16.5-4.4,33-12.1,44.8-21.3h-40.5V94.9h55.8V84.4L275.4,84.4 M236.2,0l-3.5,6.3c-5.2,9.3-16.1,22.4-38.8,32.3l-16.4,7.1L192.2,56
	c3,2.3,5.7,4.9,8.2,7.8c-2,0.3-4,0.6-6.1,0.9L176.8,67l10.8,13.8c1,1.3,1.9,2.7,2.7,4.1h-2.9v39h8.7c-1.9,0.6-3.8,1.1-5.6,1.6
	l-17.5,4.6l13.2,12.4c4.7,4.7,8.8,9.9,12.3,15.5l4.2,7l7.7-2.7c11.6-4.1,22.6-9.8,32.7-16.7V164h42.2v-19.3
	c10.3,7,21.4,12.6,33.1,16.8l7.8,2.7l4.2-7.1c2.7-4.6,8.5-12.3,12.5-15.9l13.8-12.5l-18-4.6l-0.4-0.1h3.6V84.9h-3.5
	c1.5-2.2,3.1-4.3,4.9-6.3l13.8-14.8l-20.2-2c-10.1-1-20.1-2.6-30.1-4.8c6.1-6.6,11.4-14,15.6-22l4.5-8.5l-8.4-4.8l-15-8.5l-3.4-2
	l-3.8,0.9l-2.6,0.6h-14.8l2.6-4.2l-14.4-2.7l-23.8-4.5L236.2,0L236.2,0z"/>
<path class="st0" d="M422.4,11.5V40l7.7-3.1c2.4,5.7,5.2,12.3,7.7,18.5V42.8h19.5l1.2-8H435V16.7h85.8v18.1h-40.5l-1.3,8h15.2
	l3.4-0.8l15.8,0.9c-0.3,10.6-1,21-1.9,30.5h13.3V92h-92.5V73.4h19.7c0.9-3.9,1.7-8.1,2.4-12.5h-14.4c0.8,2,1.3,3.8,1.8,5.2l-15.4,7
	c-0.9-3.3-2.2-7.6-3.8-12.1V154h-20.8V63.1c-1.1,8.2-2.6,16.3-4.7,24.3l-16.7-6c3.3-10,5.8-27,6.9-39.7l14.4,2V11.5L422.4,11.5
	 M491.1,61h-15.3c-0.8,4.4-1.7,8.5-2.4,12.5h16.8C490.6,69.4,490.9,65,491.1,61 M516.4,98.6v54.6h-21.2v-4h-36.4v4.6h-20.1V98.6
	H516.4 M458.8,130.6h36.4v-13.4h-36.4V130.6 M432.4,1.5h-40.8v30.6l-3.1-0.4L378,30.3l-0.9,10.5c-0.9,11.5-3.4,28.1-6.4,37.5l-3,9.2
	l9.1,3.3l14.7,5.3V164h40.8v-0.1h36.4v-4.6h16.4v4h41.2V102h8.2V63.4h-12.5c0.5-6.4,0.8-12.6,1-18.5h7.6V6.7h-98.4L432.4,1.5
	L432.4,1.5z"/>
</svg>
