<svg xmlns="http://www.w3.org/2000/svg" viewBox="0 0 471.2 169.64"><g id="ba05c00d-8b85-42ad-972a-277be5690220" data-name="Layer 2"><g id="ac57e2fe-eaeb-459a-9d65-200e6d9d08de" data-name="Layer 1"><g id="adc82bd8-9d50-4143-88a9-ae5758e8610a" data-name="b781f605-129c-43e7-a92a-853da60811dc"><g id="f300bfc8-e32d-40f9-8236-747f006cf32f" data-name="bb9f79c3-e42f-4ae6-8c60-702ab2f1ce19"><path d="M137.84,26.85v21.6H83.4c-1.2,7.35-2.55,14.7-3.9,22.2h44.85V128h22.79v21.59H12V128H43.35c2.55-11,5.25-23.25,7.8-35.85H24.75V70.65H55.2c1.2-7.5,2.55-15,3.6-22.2H20.25V26.85H137.84M67.8,128h33.9V92.1H75.3c-2.55,12.75-5.1,25-7.5,35.85m82-113.1H8.25v45.6h4.5V104.1H36.39c-.85,4-1.72,7.92-2.61,11.85H0v45.59H159.14V116H136.35V60.45h13.49V14.85ZM85.12,104.1H89.7V116h-7c.8-3.79,1.62-7.75,2.46-11.85Z"/><path d="M209.64,13.4l23.85,4.5c-1.5,2.4-3,4.8-4.65,7.05H263l3.75-.9,15,8.5a96.93,96.93,0,0,1-26.7,31.5c14.4,4.8,31,8.1,49,9.9-4.5,4.8-10.2,13.8-12.9,19.5-21.74-3-40.94-8.25-57.44-16-17.7,9-38.25,14.85-59.85,18.75-2-5.7-6.45-14.55-10.2-19.35,17.25-2.25,33.9-6.3,48.45-12.15a111.39,111.39,0,0,1-12-10,143.25,143.25,0,0,1-18.71,11.65c-3.3-5.1-10.35-12.9-15.3-16.35,22.05-9.6,36-23.1,43.5-36.6m37.85,29.8H215.64a88,88,0,0,0,17,11.4,88.87,88.87,0,0,0,14.85-11.4m-3.8,43.35v10.5h56.39v19l-39.59,0c12,8.55,28.05,15.75,43.94,19.79-4.8,4.35-11.25,12.9-14.39,18.3a136.7,136.7,0,0,1-46.35-27.84v29.84h-22.2V126.9a132,132,0,0,1-46.05,28.19,99.06,99.06,0,0,0-14.1-17.7c16.5-4.34,33-12.14,44.85-21.29h-40.5v-19h55.8V86.55h22.2M203.36,0l-4.21,7.57c-5,9-15.62,21.77-37.8,31.43l-19.69,8.57,17.62,12.27a40.48,40.48,0,0,1,5.3,4.78l-2.43.33L141.3,67.67l12.94,16.57c.21.26.42.55.64.86h-1.19V127L138,131.11l14.84,14.78a87.18,87.18,0,0,1,12.39,15.55l5.12,8.2,9.1-3.25a143.61,143.61,0,0,0,30-14.85v16.65h46.2V150.65A147.83,147.83,0,0,0,286,165.49l9.39,3.34,5-8.61c2.61-4.49,8.33-12.05,12.08-15.44l16.56-15-17-4.32V85.05h-1.65c.84-1.1,1.66-2.09,2.41-2.9l16.63-17.72L305.28,62a251.24,251.24,0,0,1-26.4-4,108.87,108.87,0,0,0,13.51-19.83l5.48-10.33L287.69,22.1l-15-8.5-4.11-2.32L264,12.38l-2.37.57H250.73L253,9.36,235.71,6.11l-23.85-4.5L203.36,0Z"/><path d="M356.91,13.65v28.5L364.56,39c2.4,5.7,5.25,12.3,7.65,18.45V45h19.5l1.2-8h-23.4V18.9H455.3V37.05H414.81l-1.35,8h15.15l3.44-.75,15.75.9c-.3,10.65-1.05,21-1.95,30.45l13.35-.05V94.2H366.66V75.6h19.65c.9-3.9,1.65-8.1,2.4-12.45h-14.4q1.13,3,1.8,5.25l-15.45,7c-.9-3.3-2.25-7.65-3.75-12.15v92.84H336.06V65.25a213.79,213.79,0,0,1-4.65,24.3l-16.65-6c3.3-10,5.85-27,6.9-39.75l14.4,2V13.65h20.85m68.7,49.5h-15.3c-.75,4.35-1.65,8.55-2.4,12.45h16.8c.45-4,.75-8.4.9-12.45M451,100.8v54.55H429.8v-4H393.36V156h-20.1V100.8H451m-57.64,32H429.8V119.4H393.36v13.35M368.91,1.65H324.06V32l-.79-.1-12.53-1.7-1,12.6c-1.14,13.9-3.75,29.11-6.34,37l-3.64,11.08,11,4,13.37,4.81v68.49h44.85V168h36.45v-4.65H417.8v4H463V106.2h8.2V63.55l-12.05.05h-.26c.36-5,.62-9.83.79-14.55h7.62V6.9H368.91V1.65Z"/></g></g></g></g></svg>